<svg id="Gradient" height="512" viewBox="0 0 512 512" width="512" xmlns="http://www.w3.org/2000/svg" xmlns:xlink="http://www.w3.org/1999/xlink"><linearGradient id="linear-gradient" gradientUnits="userSpaceOnUse" x1="256" x2="256" y1="496" y2="16"><stop offset="0" stop-color="#12c2e9"/><stop offset=".5" stop-color="#c471ed"/><stop offset="1" stop-color="#f64f59"/></linearGradient><path d="m349.657 18.343a8 8 0 0 0 -5.657-2.343h-224a56.063 56.063 0 0 0 -56 56v368a56.063 56.063 0 0 0 56 56h272a56.063 56.063 0 0 0 56-56v-320a8 8 0 0 0 -2.343-5.657zm2.343 24.97 68.687 68.687h-28.687a40.045 40.045 0 0 1 -40-40zm-232-11.313h216v40a56.063 56.063 0 0 0 56 56h40v224h-352v-280a40.045 40.045 0 0 1 40-40zm272 448h-272a40.045 40.045 0 0 1 -40-40v-72h352v72a40.045 40.045 0 0 1 -40 40zm-208-56c0 13.01 7.327 24 16 24a10.678 10.678 0 0 0 4.588-1.058 8 8 0 0 1 6.824 14.473 26.587 26.587 0 0 1 -11.412 2.585c-17.645 0-32-17.944-32-40s14.355-40 32-40a26.586 26.586 0 0 1 11.411 2.585 8 8 0 0 1 -6.822 14.473 10.689 10.689 0 0 0 -4.589-1.058c-8.673 0-16 10.99-16 24zm96 0a8 8 0 0 1 -8 8h-8v8a8 8 0 0 1 -16 0v-8h-8a8 8 0 0 1 0-16h8v-8a8 8 0 0 1 16 0v8h8a8 8 0 0 1 8 8zm64 0a8 8 0 0 1 -8 8h-8v8a8 8 0 0 1 -16 0v-8h-8a8 8 0 0 1 0-16h8v-8a8 8 0 0 1 16 0v8h8a8 8 0 0 1 8 8zm-112-288v-16a8 8 0 0 1 16 0v16a8 8 0 0 1 -16 0zm-32 32v-48a8 8 0 0 1 16 0v48a8 8 0 0 1 -16 0zm-32 128v-48a8 8 0 0 1 16 0v48a8 8 0 0 1 -16 0zm160 0v-80a8 8 0 0 1 16 0v80a8 8 0 0 1 -16 0zm-160-112v-16a8 8 0 0 1 16 0v16a8 8 0 0 1 -16 0zm32 80v-16a8 8 0 0 1 16 0v16a8 8 0 0 1 -16 0zm0 32a8 8 0 1 1 8 8 8 8 0 0 1 -8-8zm-32-80a8 8 0 1 1 8 8 8 8 0 0 1 -8-8zm64-48a8 8 0 1 1 8 8 8 8 0 0 1 -8-8zm0 80v-48a8 8 0 0 1 16 0v48a8 8 0 0 1 -16 0zm-32-32v-16a8 8 0 0 1 16 0v16a8 8 0 0 1 -16 0zm128-32a8 8 0 1 1 8 8 8 8 0 0 1 -8-8zm-64 112v-48a8 8 0 0 1 16 0v48a8 8 0 0 1 -16 0zm0-128v-16a8 8 0 0 1 16 0v16a8 8 0 0 1 -16 0zm0-48a8 8 0 1 1 8 8 8 8 0 0 1 -8-8zm0 96v-16a8 8 0 0 1 16 0v16a8 8 0 0 1 -16 0zm-96-80v-16a8 8 0 0 1 16 0v16a8 8 0 0 1 -16 0zm128 64v-80a8 8 0 0 1 16 0v80a8 8 0 0 1 -16 0zm0 32a8 8 0 1 1 8 8 8 8 0 0 1 -8-8zm0 64v-32a8 8 0 0 1 16 0v32a8 8 0 0 1 -16 0zm-64 0v-16a8 8 0 0 1 16 0v16a8 8 0 0 1 -16 0zm96-144v-16a8 8 0 0 1 16 0v16a8 8 0 0 1 -16 0z" fill="url(#linear-gradient)"/></svg>