<?xml version="1.0" encoding="utf-8"?>
<!-- Generator: Adobe Illustrator 16.0.0, SVG Export Plug-In . SVG Version: 6.00 Build 0)  -->
<!DOCTYPE svg PUBLIC "-//W3C//DTD SVG 1.1//EN" "http://www.w3.org/Graphics/SVG/1.1/DTD/svg11.dtd">
<svg version="1.1" id="Layer_1" xmlns="http://www.w3.org/2000/svg" xmlns:xlink="http://www.w3.org/1999/xlink" x="0px" y="0px"
	 width="512px" height="512px" viewBox="0 0 512 512" enable-background="new 0 0 512 512" xml:space="preserve">
<text transform="matrix(1 0 0 1 168.7834 543.8093)"><tspan x="0" y="0" fill="#FFFF00" font-family="'Verdana-Bold'" font-size="20">simpleicon.com</tspan><tspan x="-159.59" y="24" fill="#FFFF00" font-family="'Verdana'" font-size="20">Collection Of Flat Icon, Symbols And Glyph Icons</tspan></text>
<path d="M256,50C142.229,50,50,142.229,50,256c0,113.771,92.229,206,206,206c113.771,0,206-92.229,206-206
	C462,142.229,369.771,50,256,50z M328.056,155.655c-11.053-0.02-22.108,0.026-33.157-0.02c-7.005-0.437-14.202,4.875-15.479,11.823
	c-0.164,12.068-0.06,24.147-0.052,36.213c16.206,0.073,32.417-0.016,48.619,0.044c-1.183,17.462-3.352,34.843-5.891,52.156
	c-14.319,0.133-28.643-0.016-42.954,0.072c-0.129,51.5,0.064,102.996-0.104,154.496c-21.264,0.089-42.544-0.036-63.804,0.061
	c-0.402-51.504,0.032-103.036-0.225-154.548c-10.373-0.113-20.753,0.072-31.124-0.089c0.039-17.313,0.012-34.626,0.018-51.935
	c10.369-0.129,20.741,0.028,31.105-0.072c0.318-16.833-0.314-33.683,0.33-50.502c1.038-13.315,6.116-26.734,16.078-35.933
	c12.046-11.475,29.189-15.35,45.356-15.833c17.1-0.153,34.19-0.06,51.29-0.052C328.132,119.573,328.136,137.618,328.056,155.655z"/>
</svg>
